<?xml version="1.0" standalone="no"?>
<!DOCTYPE svg PUBLIC "-//W3C//DTD SVG 20010904//EN"
 "http://www.w3.org/TR/2001/REC-SVG-20010904/DTD/svg10.dtd">
<svg version="1.0" xmlns="http://www.w3.org/2000/svg"
 width="260.000000pt" height="260.000000pt" viewBox="0 0 260.000000 260.000000"
 preserveAspectRatio="xMidYMid meet">
<metadata>
Created by potrace 1.11, written by Peter Selinger 2001-2013
</metadata>
<g transform="translate(0.000000,260.000000) scale(0.100000,-0.100000)"
fill="#000000" stroke="none">
<path d="M475 2321 c7 -22 37 -99 65 -173 126 -324 151 -388 180 -468 17 -47
35 -94 40 -105 5 -11 50 -128 100 -260 50 -132 109 -285 130 -340 22 -55 98
-253 169 -439 72 -187 134 -343 138 -347 5 -4 39 74 77 174 38 100 75 196 81
212 7 17 45 113 83 215 39 102 130 340 202 530 72 190 161 422 196 515 36 94
78 204 94 245 16 41 47 121 69 178 l39 102 -838 0 -839 0 14 -39z m1117 -311
l27 0 -35 -97 c-233 -654 -280 -783 -286 -783 -5 0 -8 7 -8 15 0 8 -7 29 -15
47 -14 31 -295 806 -295 813 0 10 151 11 612 5z"/>
</g>
</svg>
